Normalized EMG Linear Envelopes
nRows=65
nColumns=17

endheader
time	        VM	        VL	        RF	       GRA	        TA	   ADDLONG	   SEMIMEM	      BFLH	        GM	        GL	       TFL	   GLUTMAX	   GLUTMED	      PIRI	    OBTINT	        QF	
2.8575	  0.087618	  0.118740	  0.625186	  0.373577	  0.620615	  0.113131	  0.054759	  0.064472	  0.047702	  0.071827	  0.400106	  0.086254	  0.069821	  0.088877	  0.112431	  0.136109	
2.858	  0.088031	  0.118827	  0.626072	  0.374775	  0.621151	  0.112894	  0.054872	  0.065152	  0.048027	  0.071631	  0.399704	  0.087205	  0.070760	  0.090087	  0.113233	  0.136515	
2.8585	  0.088439	  0.118909	  0.626866	  0.375999	  0.621682	  0.112687	  0.054991	  0.065840	  0.048373	  0.071453	  0.399264	  0.088157	  0.071707	  0.091328	  0.114047	  0.136910	
2.859	  0.088840	  0.118984	  0.627568	  0.377247	  0.622205	  0.112510	  0.055117	  0.066537	  0.048739	  0.071293	  0.398786	  0.089109	  0.072660	  0.092600	  0.114874	  0.137292	
2.8595	  0.089234	  0.119053	  0.628175	  0.378518	  0.622718	  0.112362	  0.055248	  0.067240	  0.049125	  0.071151	  0.398270	  0.090061	  0.073620	  0.093903	  0.115714	  0.137663	
2.86	  0.089622	  0.119116	  0.628687	  0.379809	  0.623220	  0.112244	  0.055383	  0.067950	  0.049531	  0.071027	  0.397718	  0.091012	  0.074586	  0.095238	  0.116566	  0.138021	
2.8605	  0.090002	  0.119171	  0.629101	  0.381119	  0.623706	  0.112154	  0.055524	  0.068666	  0.049957	  0.070920	  0.397129	  0.091963	  0.075558	  0.096605	  0.117430	  0.138369	
2.861	  0.090374	  0.119218	  0.629417	  0.382445	  0.624176	  0.112093	  0.055668	  0.069387	  0.050402	  0.070830	  0.396503	  0.092912	  0.076536	  0.098004	  0.118307	  0.138705	
2.8615	  0.090738	  0.119258	  0.629633	  0.383785	  0.624626	  0.112060	  0.055815	  0.070114	  0.050868	  0.070757	  0.395842	  0.093860	  0.077520	  0.099436	  0.119196	  0.139029	
2.862	  0.091093	  0.119289	  0.629749	  0.385137	  0.625055	  0.112053	  0.055966	  0.070845	  0.051352	  0.070701	  0.395146	  0.094807	  0.078508	  0.100901	  0.120096	  0.139343	
2.8625	  0.091438	  0.119311	  0.629766	  0.386500	  0.625459	  0.112074	  0.056119	  0.071580	  0.051856	  0.070661	  0.394414	  0.095751	  0.079502	  0.102400	  0.121008	  0.139646	
2.863	  0.091773	  0.119324	  0.629683	  0.387871	  0.625838	  0.112121	  0.056273	  0.072318	  0.052379	  0.070637	  0.393647	  0.096694	  0.080501	  0.103932	  0.121932	  0.139937	
2.8635	  0.092098	  0.119328	  0.629501	  0.389248	  0.626187	  0.112194	  0.056430	  0.073059	  0.052920	  0.070629	  0.392846	  0.097635	  0.081504	  0.105499	  0.122866	  0.140218	
2.864	  0.092411	  0.119322	  0.629222	  0.390629	  0.626505	  0.112292	  0.056587	  0.073802	  0.053481	  0.070637	  0.392009	  0.098573	  0.082511	  0.107099	  0.123812	  0.140487	
2.8645	  0.092713	  0.119305	  0.628847	  0.392014	  0.626790	  0.112415	  0.056744	  0.074547	  0.054059	  0.070660	  0.391139	  0.099509	  0.083522	  0.108735	  0.124767	  0.140746	
2.865	  0.093003	  0.119277	  0.628375	  0.393399	  0.627038	  0.112562	  0.056902	  0.075293	  0.054656	  0.070699	  0.390234	  0.100442	  0.084538	  0.110406	  0.125734	  0.140993	
2.8655	  0.093281	  0.119239	  0.627810	  0.394785	  0.627249	  0.112733	  0.057059	  0.076040	  0.055270	  0.070752	  0.389295	  0.101372	  0.085557	  0.112112	  0.126709	  0.141229	
2.866	  0.093546	  0.119189	  0.627150	  0.396170	  0.627419	  0.112927	  0.057216	  0.076788	  0.055902	  0.070821	  0.388323	  0.102299	  0.086579	  0.113855	  0.127695	  0.141454	
2.8665	  0.093798	  0.119127	  0.626398	  0.397552	  0.627548	  0.113144	  0.057371	  0.077535	  0.056552	  0.070903	  0.387318	  0.103223	  0.087605	  0.115634	  0.128689	  0.141668	
2.867	  0.094036	  0.119053	  0.625554	  0.398932	  0.627633	  0.113383	  0.057524	  0.078281	  0.057219	  0.071000	  0.386280	  0.104142	  0.088633	  0.117450	  0.129692	  0.141871	
2.8675	  0.094261	  0.118968	  0.624619	  0.400307	  0.627673	  0.113644	  0.057676	  0.079027	  0.057903	  0.071111	  0.385211	  0.105058	  0.089664	  0.119302	  0.130702	  0.142064	
2.868	  0.094472	  0.118870	  0.623595	  0.401677	  0.627668	  0.113925	  0.057824	  0.079772	  0.058604	  0.071236	  0.384110	  0.105969	  0.090697	  0.121193	  0.131720	  0.142245	
2.8685	  0.094669	  0.118761	  0.622482	  0.403041	  0.627616	  0.114227	  0.057970	  0.080516	  0.059321	  0.071374	  0.382979	  0.106875	  0.091731	  0.123121	  0.132745	  0.142417	
2.869	  0.094852	  0.118639	  0.621282	  0.404396	  0.627516	  0.114549	  0.058113	  0.081259	  0.060055	  0.071526	  0.381819	  0.107777	  0.092767	  0.125088	  0.133776	  0.142579	
2.8695	  0.095019	  0.118506	  0.619998	  0.405743	  0.627366	  0.114890	  0.058252	  0.082000	  0.060804	  0.071691	  0.380630	  0.108673	  0.093804	  0.127093	  0.134813	  0.142731	
2.87	  0.095172	  0.118360	  0.618630	  0.407079	  0.627166	  0.115250	  0.058387	  0.082739	  0.061570	  0.071868	  0.379413	  0.109564	  0.094842	  0.129138	  0.135854	  0.142874	
2.8705	  0.095310	  0.118203	  0.617182	  0.408404	  0.626915	  0.115629	  0.058518	  0.083477	  0.062351	  0.072059	  0.378168	  0.110450	  0.095880	  0.131222	  0.136899	  0.143008	
2.871	  0.095432	  0.118033	  0.615654	  0.409717	  0.626611	  0.116025	  0.058645	  0.084214	  0.063147	  0.072261	  0.376897	  0.111330	  0.096917	  0.133347	  0.137948	  0.143134	
2.8715	  0.095539	  0.117850	  0.614050	  0.411017	  0.626255	  0.116440	  0.058768	  0.084948	  0.063958	  0.072476	  0.375601	  0.112205	  0.097954	  0.135512	  0.139000	  0.143252	
2.872	  0.095631	  0.117656	  0.612370	  0.412303	  0.625845	  0.116871	  0.058885	  0.085679	  0.064784	  0.072704	  0.374279	  0.113073	  0.098990	  0.137719	  0.140054	  0.143363	
2.8725	  0.095707	  0.117449	  0.610617	  0.413573	  0.625384	  0.117319	  0.058997	  0.086408	  0.065624	  0.072942	  0.372933	  0.113935	  0.100025	  0.139968	  0.141109	  0.143467	
2.873	  0.095767	  0.117231	  0.608794	  0.414828	  0.624870	  0.117783	  0.059105	  0.087134	  0.066478	  0.073192	  0.371564	  0.114792	  0.101059	  0.142259	  0.142165	  0.143565	
2.8735	  0.095813	  0.117001	  0.606900	  0.416065	  0.624305	  0.118262	  0.059206	  0.087857	  0.067346	  0.073454	  0.370173	  0.115641	  0.102091	  0.144592	  0.143221	  0.143656	
2.874	  0.095843	  0.116759	  0.604939	  0.417285	  0.623689	  0.118756	  0.059303	  0.088577	  0.068228	  0.073726	  0.368759	  0.116484	  0.103121	  0.146969	  0.144277	  0.143742	
2.8745	  0.095857	  0.116506	  0.602911	  0.418487	  0.623024	  0.119265	  0.059393	  0.089293	  0.069123	  0.074009	  0.367324	  0.117320	  0.104148	  0.149388	  0.145332	  0.143822	
2.875	  0.095857	  0.116242	  0.600819	  0.419669	  0.622309	  0.119788	  0.059477	  0.090005	  0.070031	  0.074301	  0.365869	  0.118148	  0.105173	  0.151852	  0.146386	  0.143897	
2.8755	  0.095842	  0.115967	  0.598662	  0.420832	  0.621545	  0.120325	  0.059555	  0.090712	  0.070952	  0.074604	  0.364395	  0.118969	  0.106196	  0.154360	  0.147437	  0.143967	
2.876	  0.095812	  0.115681	  0.596442	  0.421973	  0.620734	  0.120874	  0.059626	  0.091415	  0.071886	  0.074917	  0.362902	  0.119781	  0.107216	  0.156911	  0.148487	  0.144033	
2.8765	  0.095767	  0.115385	  0.594161	  0.423092	  0.619876	  0.121436	  0.059691	  0.092114	  0.072831	  0.075239	  0.361391	  0.120586	  0.108232	  0.159507	  0.149534	  0.144094	
2.877	  0.095707	  0.115078	  0.591819	  0.424187	  0.618971	  0.122010	  0.059749	  0.092807	  0.073788	  0.075571	  0.359864	  0.121381	  0.109245	  0.162148	  0.150579	  0.144151	
2.8775	  0.095633	  0.114760	  0.589416	  0.425259	  0.618021	  0.122595	  0.059800	  0.093496	  0.074757	  0.075912	  0.358321	  0.122168	  0.110254	  0.164833	  0.151620	  0.144205	
2.878	  0.095544	  0.114432	  0.586954	  0.426307	  0.617027	  0.123191	  0.059845	  0.094179	  0.075737	  0.076262	  0.356764	  0.122946	  0.111260	  0.167564	  0.152658	  0.144255	
2.8785	  0.095441	  0.114094	  0.584433	  0.427328	  0.615992	  0.123797	  0.059883	  0.094857	  0.076728	  0.076621	  0.355193	  0.123714	  0.112261	  0.170339	  0.153693	  0.144302	
2.879	  0.095324	  0.113745	  0.581854	  0.428323	  0.614916	  0.124413	  0.059913	  0.095530	  0.077731	  0.076988	  0.353608	  0.124473	  0.113257	  0.173159	  0.154725	  0.144345	
2.8795	  0.095194	  0.113385	  0.579216	  0.429291	  0.613802	  0.125038	  0.059937	  0.096196	  0.078744	  0.077364	  0.352011	  0.125222	  0.114249	  0.176024	  0.155753	  0.144385	
2.88	  0.095050	  0.113016	  0.576521	  0.430230	  0.612651	  0.125671	  0.059954	  0.096857	  0.079768	  0.077748	  0.350403	  0.125961	  0.115235	  0.178935	  0.156777	  0.144423	
2.8805	  0.094893	  0.112635	  0.573769	  0.431140	  0.611466	  0.126312	  0.059964	  0.097511	  0.080803	  0.078140	  0.348783	  0.126690	  0.116216	  0.181891	  0.157798	  0.144458	
2.881	  0.094723	  0.112244	  0.570961	  0.432019	  0.610247	  0.126959	  0.059966	  0.098159	  0.081849	  0.078540	  0.347152	  0.127409	  0.117191	  0.184892	  0.158814	  0.144491	
2.8815	  0.094541	  0.111843	  0.568097	  0.432866	  0.608998	  0.127614	  0.059961	  0.098800	  0.082905	  0.078947	  0.345511	  0.128118	  0.118159	  0.187939	  0.159827	  0.144521	
2.882	  0.094346	  0.111430	  0.565178	  0.433679	  0.607718	  0.128273	  0.059949	  0.099434	  0.083971	  0.079361	  0.343860	  0.128815	  0.119120	  0.191031	  0.160837	  0.144549	
2.8825	  0.094139	  0.111007	  0.562205	  0.434457	  0.606411	  0.128938	  0.059929	  0.100061	  0.085048	  0.079781	  0.342201	  0.129502	  0.120075	  0.194168	  0.161842	  0.144575	
2.883	  0.093920	  0.110573	  0.559179	  0.435198	  0.605076	  0.129606	  0.059901	  0.100679	  0.086135	  0.080208	  0.340533	  0.130176	  0.121022	  0.197351	  0.162844	  0.144599	
2.8835	  0.093689	  0.110128	  0.556100	  0.435900	  0.603714	  0.130278	  0.059866	  0.101290	  0.087232	  0.080640	  0.338858	  0.130840	  0.121961	  0.200580	  0.163842	  0.144621	
2.884	  0.093446	  0.109671	  0.552971	  0.436561	  0.602328	  0.130951	  0.059822	  0.101891	  0.088340	  0.081079	  0.337177	  0.131491	  0.122893	  0.203855	  0.164836	  0.144641	
2.8845	  0.093193	  0.109203	  0.549791	  0.437180	  0.600917	  0.131626	  0.059771	  0.102484	  0.089457	  0.081522	  0.335491	  0.132129	  0.123816	  0.207177	  0.165827	  0.144660	
2.885	  0.092927	  0.108724	  0.546562	  0.437755	  0.599481	  0.132301	  0.059711	  0.103067	  0.090585	  0.081970	  0.333800	  0.132755	  0.124732	  0.210544	  0.166814	  0.144677	
2.8855	  0.092651	  0.108233	  0.543284	  0.438283	  0.598022	  0.132976	  0.059643	  0.103640	  0.091722	  0.082422	  0.332105	  0.133367	  0.125639	  0.213958	  0.167797	  0.144691	
2.886	  0.092365	  0.107730	  0.539959	  0.438764	  0.596539	  0.133649	  0.059567	  0.104203	  0.092869	  0.082879	  0.330407	  0.133966	  0.126538	  0.217419	  0.168776	  0.144704	
2.8865	  0.092067	  0.107216	  0.536588	  0.439195	  0.595033	  0.134319	  0.059482	  0.104755	  0.094026	  0.083339	  0.328706	  0.134552	  0.127428	  0.220927	  0.169752	  0.144714	
2.887	  0.091759	  0.106690	  0.533170	  0.439574	  0.593504	  0.134985	  0.059389	  0.105296	  0.095191	  0.083802	  0.327002	  0.135123	  0.128309	  0.224481	  0.170725	  0.144723	
2.8875	  0.091442	  0.106152	  0.529707	  0.439900	  0.591952	  0.135647	  0.059287	  0.105824	  0.096367	  0.084268	  0.325297	  0.135680	  0.129182	  0.228083	  0.171695	  0.144729	
2.888	  0.091114	  0.105603	  0.526201	  0.440170	  0.590376	  0.136303	  0.059176	  0.106341	  0.097551	  0.084737	  0.323590	  0.136223	  0.130045	  0.231731	  0.172662	  0.144732	
2.8885	  0.090776	  0.105041	  0.522651	  0.440383	  0.588778	  0.136952	  0.059057	  0.106846	  0.098745	  0.085209	  0.321882	  0.136750	  0.130899	  0.235426	  0.173625	  0.144733	
2.889	  0.090429	  0.104468	  0.519061	  0.440537	  0.587157	  0.137594	  0.058928	  0.107337	  0.099947	  0.085683	  0.320172	  0.137262	  0.131743	  0.239168	  0.174587	  0.144732	
2.8895	  0.090072	  0.103884	  0.515430	  0.440630	  0.585513	  0.138228	  0.058791	  0.107815	  0.101158	  0.086158	  0.318462	  0.137759	  0.132578	  0.242957	  0.175546	  0.144726	
